<?xml version="1.0" standalone="no"?>
<!DOCTYPE svg PUBLIC "-//W3C//DTD SVG 20010904//EN"
 "http://www.w3.org/TR/2001/REC-SVG-20010904/DTD/svg10.dtd">
<svg version="1.0" xmlns="http://www.w3.org/2000/svg"
 width="512.000000pt" height="512.000000pt" viewBox="0 0 512.000000 512.000000"
 preserveAspectRatio="xMidYMid meet">
<metadata>
Created by potrace 1.14, written by Peter Selinger 2001-2017
</metadata>
<g transform="translate(0.000000,512.000000) scale(0.100000,-0.100000)"
fill="#000000" stroke="none">
<path d="M4826 4553 c-4 -5 -23 -42 -42 -83 -19 -41 -53 -105 -75 -142 -40
-66 -40 -66 -67 -52 -67 34 -132 1 -132 -67 0 -72 86 -115 151 -74 25 16 123
163 168 253 23 45 46 80 51 77 7 -4 8 -37 4 -84 l-7 -78 45 -46 c45 -48 81
-60 92 -31 12 32 5 54 -23 68 -36 19 -41 32 -41 112 0 68 -9 94 -44 131 -20
22 -65 31 -80 16z m-216 -343 c8 -15 8 -20 -2 -20 -22 0 -41 17 -34 29 11 17
24 13 36 -9z"/>
<path d="M3654 4416 c-90 -21 -193 -67 -230 -104 -36 -34 -104 -132 -133 -191
-10 -20 -33 -76 -51 -126 -37 -103 -108 -245 -152 -306 -35 -49 -148 -106
-430 -218 -197 -79 -338 -155 -456 -249 -269 -212 -527 -544 -702 -904 -87
-179 -103 -206 -137 -235 -26 -21 -227 -148 -527 -333 -114 -70 -246 -163
-563 -396 -199 -147 -218 -164 -209 -197 5 -20 16 -29 44 -37 20 -5 76 -21
124 -35 155 -43 201 -50 255 -37 156 38 279 61 363 67 131 9 404 49 544 80 65
14 129 22 142 19 13 -4 31 -1 39 6 8 7 32 14 52 16 21 2 110 15 198 28 l159
25 52 -57 c95 -106 324 -210 512 -234 48 -6 91 -14 95 -18 5 -4 2 -29 -6 -56
-8 -27 -20 -68 -26 -91 -11 -39 -16 -43 -69 -63 -110 -40 -112 -41 -112 -65 0
-20 23 -55 35 -55 2 0 27 9 55 20 28 11 53 20 55 20 2 0 -3 -20 -11 -44 -17
-50 -9 -103 19 -120 22 -14 32 1 48 72 7 29 17 56 23 59 5 4 38 -24 72 -62 34
-38 66 -65 72 -61 6 4 14 23 18 42 6 34 3 39 -57 100 -35 35 -69 64 -76 64
-16 0 -16 -1 1 48 8 23 20 77 27 121 6 47 16 81 23 81 6 0 28 5 49 11 28 8 41
18 48 38 l10 28 113 -3 c95 -2 119 -6 147 -24 19 -11 46 -23 60 -26 23 -5 28
-14 38 -58 6 -28 16 -69 23 -92 l11 -41 -61 -71 c-79 -92 -85 -104 -71 -136
19 -42 39 -40 78 6 20 24 48 56 63 73 l26 30 7 -30 c12 -51 56 -143 72 -149
43 -17 51 47 19 142 l-25 73 65 -35 65 -34 15 23 c26 40 14 57 -66 97 -41 20
-82 37 -91 38 -9 0 -20 14 -26 33 -6 17 -20 56 -32 84 l-21 53 33 16 c56 29
143 107 188 169 24 33 86 104 136 157 87 92 207 245 302 386 51 76 123 258
156 395 49 208 55 258 55 485 0 119 5 261 10 316 7 75 92 535 126 681 3 14 32
33 91 60 100 46 123 65 123 100 0 19 -11 33 -46 55 -26 16 -52 31 -58 33 -6 3
14 31 45 63 62 65 75 90 58 110 -13 16 -98 18 -166 5 -31 -6 -43 -5 -43 3 0 6
-15 43 -34 81 -26 55 -53 89 -125 158 -52 50 -111 97 -137 108 -59 27 -224 34
-310 15z m255 -88 c36 -9 63 -29 134 -97 97 -93 114 -120 146 -226 l21 -70
-20 -172 c-21 -180 -57 -381 -71 -397 -5 -6 -21 -6 -41 1 -18 5 -45 6 -60 2
-17 -4 -28 -3 -28 2 0 6 -8 9 -17 8 -10 -2 -28 1 -41 5 -15 5 -32 1 -55 -13
-29 -18 -34 -18 -43 -4 -7 11 -27 16 -69 17 -33 1 -69 7 -81 13 -15 9 -24 9
-32 1 -15 -15 -53 -3 -87 26 -15 13 -35 22 -43 19 -8 -4 -18 1 -23 10 -5 8
-17 13 -28 10 -12 -3 -20 2 -23 15 -5 17 -12 20 -51 16 -40 -4 -50 0 -78 25
-18 17 -44 31 -57 33 -18 2 -33 16 -50 48 -14 25 -29 48 -34 51 -4 3 5 30 21
60 17 30 52 118 79 197 51 147 82 202 171 308 45 55 60 65 125 89 124 45 221
52 335 23z m-986 -854 c-2 -7 6 -19 19 -28 18 -13 19 -16 5 -16 -9 0 -17 -5
-17 -10 0 -13 52 -1 62 14 4 6 9 4 14 -7 4 -12 17 -17 45 -17 31 0 43 -6 60
-30 12 -16 35 -32 50 -35 16 -4 32 -12 36 -19 11 -18 80 -49 92 -42 6 4 18 -5
27 -19 l16 -25 32 20 c32 19 32 19 64 0 18 -11 48 -20 67 -20 23 0 37 -6 44
-19 7 -12 25 -21 53 -24 86 -11 114 -20 140 -44 17 -16 34 -24 46 -21 31 8 46
-6 33 -30 -17 -32 -4 -52 35 -52 27 0 34 -4 34 -20 0 -11 -6 -18 -12 -16 -7 1
-10 1 -5 -1 4 -3 7 -13 7 -24 0 -11 7 -22 15 -25 8 -4 15 -10 15 -16 0 -5 -3
-7 -7 -5 -5 3 -9 -10 -11 -29 -1 -23 3 -37 13 -40 10 -4 15 -21 15 -55 l0 -48
53 -8 c28 -4 55 -6 60 -5 12 3 9 -5 -28 -78 -19 -38 -48 -103 -65 -145 -16
-41 -49 -114 -73 -162 -24 -49 -65 -136 -91 -194 l-48 -107 -28 11 c-20 8 -38
8 -57 1 -21 -7 -36 -5 -72 13 -55 28 -84 29 -162 2 l-61 -21 -19 21 c-51 54
-163 74 -289 52 -61 -11 -71 -11 -95 5 -33 21 -98 21 -149 0 -52 -22 -65 -20
-111 15 -65 49 -132 63 -226 49 l-79 -12 -46 42 -46 42 -94 -7 -94 -7 -48 51
c-56 60 -106 84 -160 75 -49 -8 -68 10 -78 72 -7 48 -32 84 -59 84 -22 0 -13
15 112 182 62 84 155 191 224 260 200 199 333 286 626 408 182 76 226 89 216
64z m72 -4 c-3 -5 -12 -7 -20 -3 -21 7 -19 13 6 13 11 0 18 -4 14 -10z m1076
-357 c-12 -20 -14 -14 -5 12 4 9 9 14 11 11 3 -2 0 -13 -6 -23z m-1 -32 c0 -6
-4 -13 -10 -16 -5 -3 -10 1 -10 9 0 9 5 16 10 16 6 0 10 -4 10 -9z m-2437
-790 c7 -5 35 -11 62 -13 39 -2 52 -8 60 -24 21 -43 37 -53 108 -69 106 -23
127 -33 127 -61 0 -35 32 -46 153 -52 66 -3 110 -9 112 -16 2 -6 6 -23 9 -38
9 -39 54 -50 197 -47 118 2 121 2 132 -22 7 -13 24 -29 37 -36 27 -14 135 -16
218 -4 51 7 56 6 82 -21 27 -26 34 -28 112 -28 46 0 120 5 165 11 l82 12 35
-31 c34 -30 62 -38 156 -44 34 -3 32 -5 -80 -84 -169 -120 -177 -124 -241
-124 -41 0 -63 5 -82 20 -21 17 -40 20 -112 20 -94 0 -111 6 -168 56 -34 31
-43 34 -101 34 -79 0 -103 9 -157 57 -39 35 -45 37 -128 43 -97 6 -117 15
-159 65 -26 32 -37 37 -98 46 -101 14 -128 25 -162 68 -23 28 -46 44 -84 56
-77 25 -128 56 -144 86 -10 21 -26 30 -66 39 -120 28 -145 61 -107 142 l24 52
3 -41 c2 -23 9 -46 15 -52z m-124 -260 c17 -16 31 -36 31 -44 0 -28 57 -64
131 -82 60 -15 82 -26 119 -61 58 -54 104 -74 171 -74 49 0 54 -3 93 -46 52
-58 73 -69 174 -88 91 -17 115 -27 152 -62 29 -26 103 -44 186 -44 29 0 55 -4
58 -9 11 -17 -16 -71 -37 -76 -12 -2 -87 -16 -165 -30 -154 -27 -241 -33 -209
-14 14 8 16 14 6 25 -9 11 -7 14 10 14 13 0 21 6 21 16 0 14 -7 16 -40 11 -22
-3 -43 -1 -46 5 -3 5 -18 14 -32 20 -16 6 -22 12 -14 15 28 11 11 25 -23 19
-23 -5 -35 -3 -35 4 0 27 -28 38 -91 36 -35 -2 -68 -4 -74 -6 -22 -6 -41 1
-53 20 -11 18 -8 21 23 34 19 8 35 20 35 25 0 15 -11 14 -82 -5 -33 -8 -63
-13 -65 -10 -3 3 -18 -1 -34 -9 -35 -19 -39 -19 -39 -1 0 8 -6 17 -12 20 -10
5 -10 7 0 12 6 3 12 11 12 18 0 7 11 19 25 26 14 7 25 21 25 31 0 15 -7 17
-42 15 -24 -2 -60 -10 -80 -19 -21 -9 -38 -12 -38 -6 0 5 -11 9 -25 9 -14 0
-30 9 -37 20 -7 11 -21 20 -31 20 -10 0 -17 6 -16 13 4 24 -13 48 -31 42 -10
-3 -25 2 -34 10 -19 19 -20 31 -6 40 11 7 6 34 -13 74 -9 19 -9 25 1 28 6 3
12 13 12 22 0 10 12 23 26 30 17 7 24 17 20 26 -10 27 40 17 73 -14z"/>
<path d="M3838 4113 c-22 -5 -24 -29 -3 -37 8 -3 15 -12 15 -21 0 -9 -7 -18
-15 -21 -22 -9 -21 -195 1 -229 9 -14 23 -25 30 -25 25 0 34 48 34 190 0 154
-2 159 -62 143z"/>
</g>
</svg>
